<?xml version="1.0" encoding="UTF-8"?>
<svg id="Layer_1" xmlns="http://www.w3.org/2000/svg" version="1.1" viewBox="0 0 7.5 5">
  <!-- Generator: Adobe Illustrator 29.8.2, SVG Export Plug-In . SVG Version: 2.1.1 Build 3)  -->
  <defs>
    <style>
      .st0 {
        fill: #fff;
        stroke: #000;
        stroke-width: .05px;
      }
    </style>
  </defs>
  <polygon class="st0" points="7.5 2.55 7.17 3 7.22 3.02 7.4 3.23 7.4 3.35 7.27 3.3 7.13 3.15 7.08 3.13 6.93 3.34 6.35 3.8 4.97 4.33 3.64 4.6 1.83 4.83 .72 4.15 .44 4.08 1.6 2.36 .47 .82 1.03 .61 1.91 .17 3.55 .27 5.19 .66 6.52 1.1 6.97 1.43 7.13 1.43 7.37 1.2 7.47 1.2 7.38 1.43 7.11 1.53 7.25 1.64 7.5 2.13 7.5 2.55"/>
</svg>